<svg width="160" height="160" viewBox="0 0 160 160" fill="none" xmlns="http://www.w3.org/2000/svg">
<g clip-path="url(#clip0_2002_28)">
<g opacity="0.5" filter="url(#filter0_f_2002_28)">
<path d="M121.357 45.0454C122.904 45.9385 123.857 47.5892 123.857 49.3755V92.7107C123.857 94.497 122.904 96.1476 121.357 97.0408L83.827 118.709C82.28 119.602 80.374 119.602 78.827 118.709L41.2969 97.0408C39.7499 96.1476 38.7969 94.497 38.7969 92.7106V49.3755C38.7969 47.5892 39.7499 45.9385 41.2969 45.0454L78.827 23.3775C80.374 22.4844 82.28 22.4844 83.827 23.3775L121.357 45.0454ZM56.3284 53.7234C54.7814 54.6165 53.8284 56.2672 53.8284 58.0535V84.0321C53.8284 85.8184 54.7814 87.4691 56.3284 88.3622L78.8264 101.352C80.3734 102.245 82.2794 102.245 83.8264 101.352L106.325 88.3622C107.872 87.4691 108.825 85.8184 108.825 84.0321V58.0535C108.825 56.2672 107.872 54.6165 106.325 53.7234L83.8264 40.734C82.2794 39.8409 80.3734 39.8409 78.8264 40.7341L56.3284 53.7234Z" fill="#F2522E"/>
</g>
<path d="M97.7294 71.0432L87.4777 76.3536V77.1942H97.7294V85.3955H64.9241V77.1942H75.1757V76.2982L64.9241 71.0432V60.7916L81.3267 69.6018L97.7294 60.7916" fill="#FCCCC1"/>
<path d="M70.6141 102.332C71.6663 102.94 72.0268 104.286 71.4193 105.338L45.4055 150.395C44.798 151.447 43.4525 151.808 42.4003 151.2L32.124 145.267C31.0718 144.66 30.7112 143.314 31.3188 142.262L57.3326 97.2048C57.9401 96.1525 59.2856 95.792 60.3378 96.3995L70.6141 102.332Z" fill="#F2522E"/>
<path d="M121.857 45.3341C123.094 46.0486 123.856 47.3691 123.856 48.7982V93.288C123.856 94.7171 123.094 96.0376 121.857 96.7521L83.3269 118.997C82.0893 119.712 80.5646 119.712 79.3269 118.997L40.7968 96.7521C39.5592 96.0376 38.7968 94.7171 38.7968 93.288V48.7982C38.7968 47.3691 39.5592 46.0486 40.7968 45.3341L79.3269 23.0888C80.5646 22.3743 82.0893 22.3743 83.3269 23.0888L121.857 45.3341ZM55.8284 54.012C54.5908 54.7266 53.8284 56.0471 53.8284 57.4761V84.6095C53.8284 86.0385 54.5908 87.359 55.8284 88.0735L79.3264 101.64C80.564 102.355 82.0888 102.355 83.3264 101.64L106.825 88.0735C108.063 87.359 108.825 86.0385 108.825 84.6094V57.4762C108.825 56.0471 108.063 54.7266 106.825 54.012L83.3264 40.4454C82.0888 39.7308 80.564 39.7309 79.3264 40.4454L55.8284 54.012Z" fill="#F2522E"/>
</g>
<defs>
<filter id="filter0_f_2002_28" x="13.7969" y="-2.29236" width="135.06" height="146.671" filterUnits="userSpaceOnUse" color-interpolation-filters="sRGB">
<feFlood flood-opacity="0" result="BackgroundImageFix"/>
<feBlend mode="normal" in="SourceGraphic" in2="BackgroundImageFix" result="shape"/>
<feGaussianBlur stdDeviation="12.5" result="effect1_foregroundBlur_2002_28"/>
</filter>
<clipPath id="clip0_2002_28">
<rect width="160" height="160" fill="white"/>
</clipPath>
</defs>
</svg>
